<svg width="56" height="24" viewBox="0 0 56 24" fill="none" xmlns="http://www.w3.org/2000/svg">
<rect opacity="0.3" x="0.5" y="0.5" width="55" height="23" rx="11.5" fill="#C4C4C4" stroke="black"/>
<circle cx="44" cy="12" r="11" fill="black"/>
<path d="M13.338 17.18C12.478 17.18 11.752 16.99 11.16 16.61C10.568 16.226 10.12 15.696 9.816 15.02C9.512 14.344 9.36 13.564 9.36 12.68C9.36 11.796 9.512 11.016 9.816 10.34C10.12 9.664 10.568 9.136 11.16 8.756C11.752 8.372 12.478 8.18 13.338 8.18C14.202 8.18 14.928 8.372 15.516 8.756C16.108 9.136 16.556 9.664 16.86 10.34C17.168 11.016 17.322 11.796 17.322 12.68C17.322 13.564 17.168 14.344 16.86 15.02C16.556 15.696 16.108 16.226 15.516 16.61C14.928 16.99 14.202 17.18 13.338 17.18ZM13.338 16.334C14.014 16.334 14.578 16.18 15.03 15.872C15.482 15.564 15.82 15.136 16.044 14.588C16.272 14.036 16.386 13.4 16.386 12.68C16.386 11.96 16.272 11.326 16.044 10.778C15.82 10.23 15.482 9.802 15.03 9.494C14.578 9.186 14.014 9.03 13.338 9.026C12.662 9.026 12.1 9.18 11.652 9.488C11.204 9.796 10.866 10.226 10.638 10.778C10.414 11.326 10.3 11.96 10.296 12.68C10.292 13.4 10.402 14.034 10.626 14.582C10.854 15.126 11.194 15.554 11.646 15.866C12.098 16.174 12.662 16.33 13.338 16.334ZM23.2036 17V13.694C23.2036 13.334 23.1696 13.004 23.1016 12.704C23.0336 12.4 22.9236 12.136 22.7716 11.912C22.6236 11.684 22.4296 11.508 22.1896 11.384C21.9536 11.26 21.6656 11.198 21.3256 11.198C21.0136 11.198 20.7376 11.252 20.4976 11.36C20.2616 11.468 20.0616 11.624 19.8976 11.828C19.7376 12.028 19.6156 12.272 19.5316 12.56C19.4476 12.848 19.4056 13.176 19.4056 13.544L18.7816 13.406C18.7816 12.742 18.8976 12.184 19.1296 11.732C19.3616 11.28 19.6816 10.938 20.0896 10.706C20.4976 10.474 20.9656 10.358 21.4936 10.358C21.8816 10.358 22.2196 10.418 22.5076 10.538C22.7996 10.658 23.0456 10.82 23.2456 11.024C23.4496 11.228 23.6136 11.462 23.7376 11.726C23.8616 11.986 23.9516 12.264 24.0076 12.56C24.0636 12.852 24.0916 13.144 24.0916 13.436V17H23.2036ZM18.5176 17V10.52H19.3156V12.116H19.4056V17H18.5176Z" fill="black"/>
</svg>
